<svg width="92" height="101" viewBox="0 0 92 101" fill="none" xmlns="http://www.w3.org/2000/svg">
<path d="M1 88.6556H12.9V91.4256H5.20001V100.126H1V88.6556ZM28.06 90.7656C28.4443 91.4518 28.6344 92.2296 28.61 93.0156C28.6045 93.35 28.5812 93.6838 28.54 94.0156C28.4878 94.3977 28.4076 94.7753 28.3 95.1456H18.56C18.5786 95.5552 18.6857 95.9558 18.8738 96.32C19.062 96.6842 19.3268 97.0034 19.65 97.2556C20.591 97.8008 21.6762 98.045 22.76 97.9556C23.5495 97.9642 24.3365 97.8667 25.1 97.6656C25.6481 97.5215 26.1806 97.3239 26.69 97.0756L28.06 99.0156C27.2497 99.4728 26.3773 99.8097 25.47 100.016C24.3238 100.29 23.1485 100.424 21.97 100.416C19.46 100.416 17.6 99.8756 16.43 98.8056C15.8327 98.2366 15.3654 97.5453 15.0599 96.779C14.7545 96.0127 14.618 95.1895 14.66 94.3656C14.6079 93.5057 14.7622 92.6459 15.1101 91.8578C15.4581 91.0698 15.9895 90.3764 16.66 89.8356C18.3052 88.7176 20.2745 88.176 22.26 88.2956C23.0389 88.2978 23.8158 88.3749 24.58 88.5256C25.2852 88.6681 25.9613 88.9283 26.58 89.2956C27.1924 89.6491 27.7024 90.1557 28.06 90.7656ZM24.91 93.2956C24.9617 92.9704 24.9391 92.6377 24.8439 92.3225C24.7486 92.0073 24.5832 91.7178 24.36 91.4756C24.0622 91.2229 23.7166 91.0325 23.3439 90.9157C22.9712 90.7989 22.5788 90.758 22.19 90.7956C21.2861 90.7258 20.3867 90.9773 19.65 91.5056C19.1091 91.96 18.7533 92.5968 18.65 93.2956H24.91ZM62.54 90.7656C62.9243 91.4518 63.1144 92.2296 63.09 93.0156C63.0845 93.35 63.0611 93.6838 63.02 94.0156C62.9678 94.3977 62.8876 94.7753 62.78 95.1456H53.04C53.0568 95.5545 53.162 95.9549 53.3484 96.3192C53.5349 96.6834 53.7982 97.0029 54.12 97.2556C55.0648 97.8004 56.1531 98.0445 57.24 97.9556C58.0294 97.9635 58.8164 97.866 59.58 97.6656C60.128 97.5215 60.6606 97.3239 61.17 97.0756L62.58 99.0756C61.7697 99.5328 60.8973 99.8697 59.99 100.076C58.8438 100.35 57.6686 100.484 56.49 100.476C53.98 100.476 52.11 99.9356 50.94 98.8656C50.3461 98.2945 49.8817 97.6026 49.5781 96.8366C49.2745 96.0707 49.1388 95.2485 49.18 94.4256C49.1279 93.5657 49.2822 92.7059 49.6302 91.9178C49.9781 91.1298 50.5095 90.4364 51.18 89.8956C52.8225 88.7797 54.7878 88.2383 56.77 88.3556C57.549 88.3568 58.326 88.4338 59.09 88.5856C59.7954 88.7275 60.4716 88.9879 61.09 89.3556C61.682 89.6992 62.18 90.1835 62.54 90.7656ZM59.39 92.4356C59.4312 92.2034 59.4006 91.9641 59.3023 91.7498C59.2041 91.5354 59.0428 91.356 58.84 91.2356C58.1707 90.8927 57.42 90.7405 56.67 90.7956C55.7977 90.7424 54.9255 90.9038 54.13 91.2656C53.8864 91.3734 53.6701 91.5344 53.497 91.7369C53.3239 91.9394 53.1985 92.1782 53.13 92.4356H59.39ZM75.87 97.0756C75.4548 97.2625 75.0229 97.4098 74.58 97.5156C73.9747 97.6382 73.3574 97.6919 72.74 97.6756C72.1665 97.6898 71.5948 97.6053 71.05 97.4256C70.6087 97.2734 70.2036 97.0317 69.86 96.7156C69.5612 96.4376 69.3288 96.0958 69.18 95.7156C69.0286 95.3061 68.954 94.8722 68.96 94.4356C68.9178 93.9752 68.9784 93.5112 69.1375 93.0771C69.2967 92.643 69.5502 92.2497 69.88 91.9256C70.644 91.3533 71.5875 91.0731 72.54 91.1356C73.0924 91.13 73.6442 91.1701 74.19 91.2556C74.6751 91.339 75.1532 91.4593 75.62 91.6156L76.62 89.1556C76.0016 88.9166 75.3621 88.7357 74.71 88.6156C73.8018 88.4609 72.8812 88.3906 71.96 88.4056C70.0713 88.276 68.2013 88.8494 66.71 90.0156C66.1002 90.5812 65.622 91.2738 65.3092 92.0444C64.9965 92.8151 64.8568 93.6451 64.9 94.4756C64.8894 95.3095 65.0109 96.1397 65.26 96.9356C65.4964 97.6615 65.9086 98.3176 66.46 98.8456C67.064 99.4188 67.7933 99.8434 68.59 100.086C69.6266 100.401 70.7067 100.55 71.79 100.526C72.7129 100.527 73.6337 100.44 74.54 100.266C75.3331 100.125 76.1012 99.869 76.82 99.5056L75.92 97.1956L75.87 97.0756ZM78.54 88.6756V91.4456H83.08V100.146H87.22V91.4456H91.76V88.6756H78.54ZM47.38 94.4456C47.38 96.3356 46.71 99.5156 42.23 99.5156H41.58H40.74V100.426H37.01V99.5156H36.16H35.51C31.03 99.5156 30.36 96.3356 30.36 94.4456C30.36 92.5556 31.03 89.3456 35.51 89.3456H37.01V88.3456H40.74V89.3456H42.28C46.71 89.3256 47.38 92.5256 47.38 94.4256V94.4456ZM33.5 94.4456C33.5 96.4456 33.78 97.1456 37.01 97.1956V91.7056C33.83 91.7256 33.5 92.2456 33.5 94.4256V94.4456ZM40.74 91.7056V97.1956C43.97 97.1456 44.24 96.4856 44.24 94.4456C44.24 92.4056 43.92 91.7256 40.74 91.6856V91.7056Z" fill="white"/>
<path d="M46.4397 23.2061L46.6297 22.7461L37.7697 10.2461C21.1897 28.0761 13.9697 40.3661 13.9697 52.5161C13.9697 67.8561 25.3397 72.7761 25.3397 72.7761C23.3379 69.0294 22.2484 64.8631 22.1597 60.6161C22.1597 50.6161 27.0097 45.6761 30.1597 42.5061C37.4997 35.1861 46.4397 33.9861 46.4397 23.2061ZM21.6997 35.9661C24.1897 30.3161 32.7797 18.6861 38.9497 12.9661C39.8397 14.0761 40.3697 14.9661 41.3697 16.1661C36.5897 19.6461 27.1097 29.1361 21.6997 35.9661Z" fill="url(#paint0_linear_6_639)"/>
<path d="M70.6901 31.3756C68.3801 28.3756 52.9801 7.77558 48.0001 1.08558C47.5758 0.527602 46.9546 0.152656 46.2632 0.0374208C45.5717 -0.0778145 44.8624 0.0753647 44.2801 0.465582L36.7701 5.46558C36.4518 5.67443 36.1799 5.94664 35.9715 6.26526C35.763 6.58389 35.6225 6.94209 35.5587 7.31745C35.4949 7.69281 35.5092 8.07724 35.6006 8.44685C35.692 8.81645 35.8587 9.16327 36.0901 9.46558L36.4201 9.90559L37.2701 11.0356L46.4201 23.2256C50.9201 27.7256 62.5701 36.3355 62.5701 49.9255C63.8576 48.6937 64.8808 47.2126 65.5771 45.5724C66.2734 43.9322 66.6283 42.1674 66.6201 40.3856C66.6201 40.3856 72.9701 48.8856 72.9701 56.7456C72.9701 66.0555 64.7001 71.3556 62.5701 71.3556C61.1901 71.0056 58.9301 74.4255 58.9301 74.4255C71.8701 74.4255 78.7701 62.9856 78.7701 52.5356C78.7901 43.1256 75.9101 38.2456 70.6901 31.3756Z" fill="url(#paint1_linear_6_639)"/>
<path d="M64.58 68.5253C64.66 68.3753 64.74 68.2353 64.82 68.0753C64.9 67.9153 64.9301 67.8353 64.9901 67.7253C65.9036 65.8281 66.4305 63.7681 66.54 61.6653C64.3347 63.6178 61.4855 64.6863 58.54 64.6653C55.5429 64.7167 52.6414 63.6098 50.44 61.5753C42.89 54.0153 51.18 47.8552 46.44 40.3652C46.44 47.1452 34.29 48.1852 34.29 60.6152C34.29 67.6652 39.61 75.6653 48.53 76.7053H48.69C49.2 76.7553 49.69 76.7853 50.28 76.7853H50.5C51.02 76.7853 51.5001 76.7853 52.0601 76.7153H52.2C52.7 76.7153 53.2001 76.5852 53.6801 76.4952H53.8101C56.0694 76.0106 58.199 75.0488 60.0564 73.6743C61.9138 72.2997 63.4561 70.5442 64.58 68.5253Z" fill="white"/>
<defs>
<linearGradient id="paint0_linear_6_639" x1="49.8697" y1="21.1561" x2="12.7697" y2="62.3561" gradientUnits="userSpaceOnUse">
<stop stop-color="white" stop-opacity="0.8"/>
<stop offset="0.2" stop-color="white" stop-opacity="0.9"/>
<stop offset="0.51" stop-color="white"/>
</linearGradient>
<linearGradient id="paint1_linear_6_639" x1="39.5301" y1="48.6455" x2="67.7901" y2="27.3456" gradientUnits="userSpaceOnUse">
<stop offset="0.02" stop-color="white" stop-opacity="0.8"/>
<stop offset="0.19" stop-color="white" stop-opacity="0.9"/>
<stop offset="0.7" stop-color="white"/>
</linearGradient>
</defs>
</svg>
