<svg width="1582" height="1021" viewBox="0 0 1582 1021" fill="none" xmlns="http://www.w3.org/2000/svg">
<path d="M-787.987 -1225.28C-868.604 -1146.9 -949.046 -1063.02 -1006.42 -955.366C-1074.28 -827.874 -1107.72 -675.178 -1119.36 -523.463C-1140.14 -252.845 -1095.03 15.7756 -1033.76 279.278C-1029.09 299.656 -1024.25 319.999 -1019.25 340.307C-985.289 480.524 -942.141 630.031 -845.015 713.95C-790.09 761.554 -723.353 786.583 -657.072 810.49C-539.476 852.905 -419.112 894.865 -300.99 926.168C-229.241 945.378 -157.983 960.942 -86.7943 975.244C40.3002 1000.83 168.376 1023.58 298.976 1019.76C508.125 1013.91 587.935 943.345 732.45 906.503C745.372 903.208 758.306 899.959 771.252 896.758C905.777 863.211 1039.43 829.033 1152.89 741.222C1243.81 670.834 1318.19 569.211 1380.47 458.966C1489.41 265.116 1560.63 38.5609 1577.7 -179.021C1593.97 -385.84 1557.06 -604.684 1465.22 -789.349C1398.42 -923.081 1305.53 -1035.25 1203.78 -1127.34C1042.9 -1273.8 860.947 -1370.23 668.027 -1432.63C455.548 -1501.48 231.222 -1531.06 13.171 -1542.7C-150.201 -1551.43 -309.297 -1542.7 -455.565 -1476.73C-578.278 -1421.24 -685.569 -1324.87 -787.987 -1225.28Z" fill="#F29537"/>
<path d="M-683.606 -1031.96C-750.868 -963.884 -818.727 -891.918 -867.553 -800.602C-925.632 -691.934 -955.881 -562.689 -967.833 -434.04C-989.32 -204.505 -955.671 24.0487 -904.216 249.307C-900.22 266.647 -896.143 283.976 -891.983 301.292C-863.277 420.021 -825.982 546.461 -742.982 619.304C-695.803 660.878 -638.18 685.907 -580.346 709.884C-478.453 751.949 -372.845 794.014 -270.251 821.532C-206.528 838.884 -143.437 851.328 -80.4852 862.09C31.888 881.404 144.857 896.758 260.84 895.075C438.653 892.481 513.522 836.605 638.899 805.547L672.688 797.204C790.424 768.109 905.531 735.439 1002.9 658.845C1084.54 594.661 1151.17 502.293 1206.55 402.143C1304.69 223.367 1365.22 14.7592 1375.95 -176.251C1385.87 -352.889 1348.19 -540.149 1264.38 -699.435C1204.48 -813.256 1123.13 -909.585 1034.59 -989.053C898.276 -1112.37 744.542 -1195.49 580.68 -1248.98C400.378 -1307.73 209.666 -1333.22 25.2283 -1340.23C-123.177 -1345.8 -264.222 -1330.1 -392.158 -1266.44C-500.675 -1212.42 -593.981 -1122.89 -683.606 -1031.96Z" fill="#F08B2F"/>
<path d="M-579.259 -838.671C-633.273 -780.971 -688.443 -720.853 -728.681 -645.697C-776.981 -555.608 -803.97 -449.99 -816.308 -344.547C-838.531 -156.095 -816.308 32.4265 -774.668 219.441C-771.49 233.79 -768.183 248.103 -764.749 262.382C-741.299 359.903 -709.789 462.962 -640.949 524.658C-601.517 560.238 -553.006 585.161 -503.584 609.244C-417.394 651.309 -326.542 692.918 -239.476 716.79C-185.181 731.364 -129.935 742.128 -74.141 749.005C23.4758 762.01 121.338 772.701 222.67 770.458C369.253 767.163 439.109 730.215 545.454 704.906L574.195 697.896C675.212 673.358 771.707 641.984 853.06 576.713C925.37 518.663 984.291 435.55 1032.77 345.355C1120.04 181.933 1170.06 -9.00757 1174.3 -173.657C1178.05 -320.149 1139.5 -475.824 1063.65 -609.696C1010.51 -703.502 940.512 -783.846 865.433 -850.799C757.545 -947.251 630.851 -1020.31 493.333 -1065.37C345.243 -1114.44 188.39 -1135.47 37.2508 -1137.89C-96.188 -1140.1 -219.076 -1117.39 -328.751 -1056.25C-423.073 -1003.5 -502.463 -920.732 -579.259 -838.671Z" fill="#ED8026"/>
<path d="M-474.878 -645.382C-515.817 -598.199 -558.124 -549.754 -589.81 -490.863C-628.365 -419.457 -652.06 -337.395 -664.748 -255.123C-687.707 -107.896 -676.911 40.6992 -645.085 189.434C-642.748 200.768 -640.189 212.068 -637.409 223.332C-619.322 299.364 -593.595 379.323 -538.916 430.151C-507.37 459.702 -467.797 484.52 -426.753 508.778C-356.23 550.527 -280.17 592.067 -208.631 612.153C-160.962 625.719 -114.239 631.958 -67.7266 635.674C15.1688 642.405 97.889 642.685 184.64 645.595C300.027 649.486 364.837 623.616 452.148 604.02C460.07 602.268 467.979 600.445 475.878 598.552C560 578.291 637.988 548.459 703.323 494.546C766.414 442.596 817.554 368.842 859.124 288.953C935.57 140.709 975.318 -32.3536 972.759 -170.678C970.621 -287.022 931.049 -411.15 863.085 -519.572C816.572 -593.572 758.072 -658.036 696.242 -712.3C608.826 -789.034 511.629 -845.962 405.986 -881.507C290.143 -920.557 166.729 -936.612 49.2733 -935.21C-69.2338 -933.808 -173.861 -904.292 -265.344 -845.752C-345.435 -794.537 -411.12 -718.89 -474.878 -645.382Z" fill="#EB751E"/>
<path d="M-370.496 -452.058C-398.537 -415.671 -427.804 -378.689 -451.113 -336.063C-479.666 -282.439 -500.617 -225.101 -513.364 -165.7C-537.011 -59.4389 -537.782 48.9487 -515.677 159.463C-514.03 167.736 -512.172 176.044 -510.279 184.316C-497.45 238.966 -477.542 295.719 -437.023 335.365C-409.67 361.396 -380.694 385.667 -350.272 408.032C-295.347 449.396 -234.148 490.936 -178.102 507.236C-138.459 518.909 -99.9384 522.064 -61.6277 522.274C6.51117 522.695 74.0892 515.053 146.224 520.661C230.346 527.182 290.108 516.876 358.422 503.134C364.696 501.872 370.935 500.54 377.104 499.068C444.647 483.259 503.743 454.689 553.165 412.274C606.722 366.283 650.396 301.993 685.061 232.2C750.817 99.0996 780.82 -56.0854 771.006 -168.119C763.435 -254.247 722.601 -346.895 662.348 -429.833C623.017 -482.921 577.675 -531.278 527.227 -573.941C464.416 -627.609 395.436 -671.041 318.779 -697.788C236.062 -725.962 148.675 -737.866 61.4359 -732.842C-34.2013 -728.126 -126.085 -694.159 -201.796 -635.531C-267.692 -585.439 -320.128 -517.364 -370.496 -452.058Z" fill="#E96A16"/>
<path d="M357.896 -435.582C319.866 -466.325 278.857 -496.226 231.292 -514.069C179.873 -533.384 123.967 -537.064 73.3531 -530.229C-96.8189 -507.303 -191.526 -379.075 -266.15 -258.769C-339.161 -141.022 -410.139 -13.3894 -385.989 129.456C-379.504 167.771 -365.414 207.557 -334.849 240.683C-291.877 287.235 -212.171 382.338 -147.222 402.459C-59.4196 429.626 18.5335 381.426 108.194 395.798C166.203 405.018 226.035 411.398 278.786 399.584C329.54 388.192 369.919 360.744 403.427 329.932C533.992 210.432 597.119 -36.7355 569.323 -165.419C549.835 -255.509 452.043 -359.48 357.896 -435.582Z" fill="#E75F0D"/>
</svg>
